<svg width="32" height="32" viewBox="0 0 32 32" fill="none" xmlns="http://www.w3.org/2000/svg">
<path d="M7.46665 0V10.6667M24.5333 0V10.6667M6.39998 16H12.8M25.6 16H19.2M6.39998 22.4H12.8M19.2 22.4H25.6M3.19998 5.33333H28.8C29.3658 5.33333 29.9084 5.55809 30.3085 5.95817C30.7086 6.35825 30.9333 6.90087 30.9333 7.46667V28.8C30.9333 29.3658 30.7086 29.9084 30.3085 30.3085C29.9084 30.7086 29.3658 30.9333 28.8 30.9333H3.19998C2.63419 30.9333 2.09157 30.7086 1.69149 30.3085C1.29141 29.9084 1.06665 29.3658 1.06665 28.8V7.46667C1.06665 6.90087 1.29141 6.35825 1.69149 5.95817C2.09157 5.55809 2.63419 5.33333 3.19998 5.33333V5.33333Z" stroke="white"/>
</svg>
