<svg width="32" height="29" viewBox="0 0 32 29" fill="none" xmlns="http://www.w3.org/2000/svg">
<path d="M8.99999 12C7.89374 12 6.99999 12.8875 6.99999 13.9437C6.99999 15.1062 7.89374 16 8.99999 16C10.1062 16 10.9437 15.1094 10.9437 14C10.9437 12.8906 10.1125 12 8.99999 12ZM16 11.9437C14.8906 11.9437 14.0562 12.8344 14.0562 13.9437C14.0562 15.0531 14.9469 15.8875 16 15.8875C17.0531 15.8875 17.9437 14.9969 17.9437 13.9437C17.9437 12.8906 17.1125 11.9437 16 11.9437ZM23 12C21.8906 12 21.0562 12.8906 21.0562 14C21.0562 15.1094 21.9469 16 23 16C24.1094 16 24.9994 15.1094 24.9994 14C25 12.8875 24.1125 12 23 12ZM16 0.943726C7.16249 0.943726 0.0562356 6.76373 0.0562356 13.9437C0.0562356 16.92 1.30061 19.6469 3.36311 21.8375C2.43374 24.3062 0.496236 26.3925 0.464986 26.4156C0.0509856 26.8531 -0.0583269 27.4937 0.175986 28.0406C0.363611 28.6375 0.898736 29 1.49999 29C5.34311 29 8.31874 27.3906 10.1937 26.1094C11.9981 26.6719 13.9537 27 16 27C24.8375 27 31.9437 21.1793 31.9437 14.0562C31.9437 6.9331 24.8375 0.943726 16 0.943726ZM16 24C14.3281 24 12.68 23.7422 11.1025 23.2425L9.68061 22.7972L8.46249 23.6562C7.57186 24.2887 6.34561 24.9925 4.86936 25.4687C5.33024 24.7112 5.76749 23.8594 6.11124 22.9531L6.77499 21.2031L5.48624 19.8362C4.36311 18.6312 3.00374 16.6375 3.00374 14C3.00374 8.48435 8.83124 3.99998 15.9475 3.99998C23.0637 3.99998 28.8912 8.48435 28.8912 14C28.8912 19.5156 23.175 24 16 24Z" fill="white"/>
</svg>
