<svg width="60" height="60" viewBox="0 0 60 60" fill="none" xmlns="http://www.w3.org/2000/svg">
<path d="M30 30C33.9782 30 37.7936 28.4196 40.6066 25.6066C43.4196 22.7936 45 18.9782 45 15C45 11.0218 43.4196 7.20644 40.6066 4.3934C37.7936 1.58035 33.9782 0 30 0C26.0218 0 22.2064 1.58035 19.3934 4.3934C16.5804 7.20644 15 11.0218 15 15C15 18.9782 16.5804 22.7936 19.3934 25.6066C22.2064 28.4196 26.0218 30 30 30V30ZM40 15C40 17.6522 38.9464 20.1957 37.0711 22.0711C35.1957 23.9464 32.6522 25 30 25C27.3478 25 24.8043 23.9464 22.9289 22.0711C21.0536 20.1957 20 17.6522 20 15C20 12.3478 21.0536 9.8043 22.9289 7.92893C24.8043 6.05357 27.3478 5 30 5C32.6522 5 35.1957 6.05357 37.0711 7.92893C38.9464 9.8043 40 12.3478 40 15V15ZM60 55C60 60 55 60 55 60H5C5 60 0 60 0 55C0 50 5 35 30 35C55 35 60 50 60 55ZM55 54.98C54.995 53.75 54.23 50.05 50.84 46.66C47.58 43.4 41.445 40 30 40C18.55 40 12.42 43.4 9.16 46.66C5.77 50.05 5.01 53.75 5 54.98H55Z" fill="white"/>
</svg>
