<svg width="28" height="42" viewBox="0 0 28 42" fill="none" xmlns="http://www.w3.org/2000/svg">
<path d="M4.5 0.166748H23.25C24.3551 0.166748 25.4149 0.605735 26.1963 1.38714C26.9777 2.16854 27.4167 3.22835 27.4167 4.33342V8.50008H23.25V4.33342H4.5V37.6668H23.25V33.5001H27.4167V37.6668C27.4167 38.7718 26.9777 39.8316 26.1963 40.613C25.4149 41.3944 24.3551 41.8334 23.25 41.8334H4.5C3.39493 41.8334 2.33512 41.3944 1.55372 40.613C0.772315 39.8316 0.333328 38.7718 0.333328 37.6668V4.33342C0.333328 3.22835 0.772315 2.16854 1.55372 1.38714C2.33512 0.605735 3.39493 0.166748 4.5 0.166748Z" fill="#03122F"/>
</svg>
