<svg width="34" height="34" viewBox="0 0 34 34" fill="none" xmlns="http://www.w3.org/2000/svg">
<path d="M33.1222 29.9222C32.0508 28.967 31.1127 27.872 30.3333 26.6666C29.4825 25.0028 28.9725 23.1858 28.8333 21.3222V15.8333C28.8407 12.9062 27.7789 10.0771 25.8475 7.87769C23.9161 5.67825 21.2479 4.25979 18.3444 3.88883V2.4555C18.3444 2.0621 18.1882 1.68481 17.91 1.40663C17.6318 1.12845 17.2545 0.972168 16.8611 0.972168C16.4677 0.972168 16.0904 1.12845 15.8122 1.40663C15.5341 1.68481 15.3778 2.0621 15.3778 2.4555V3.91106C12.5003 4.30875 9.86441 5.73579 7.95836 7.92784C6.05231 10.1199 5.00525 12.9284 5.01111 15.8333V21.3222C4.87195 23.1858 4.36197 25.0028 3.51111 26.6666C2.74542 27.8692 1.82244 28.9641 0.766663 29.9222C0.648143 30.0263 0.553154 30.1545 0.488016 30.2981C0.422878 30.4418 0.389085 30.5977 0.388885 30.7555V32.2666C0.388885 32.5613 0.505949 32.8439 0.714322 33.0523C0.922696 33.2607 1.20531 33.3777 1.5 33.3777H32.3889C32.6836 33.3777 32.9662 33.2607 33.1746 33.0523C33.3829 32.8439 33.5 32.5613 33.5 32.2666V30.7555C33.4998 30.5977 33.466 30.4418 33.4009 30.2981C33.3357 30.1545 33.2407 30.0263 33.1222 29.9222ZM2.7 31.1555C3.73378 30.1568 4.644 29.0377 5.41111 27.8222C6.4829 25.8127 7.10825 23.5955 7.24444 21.3222V15.8333C7.20038 14.5311 7.4188 13.2334 7.88671 12.0174C8.35463 10.8013 9.06245 9.69193 9.96805 8.75517C10.8736 7.81841 11.9585 7.07346 13.158 6.56469C14.3575 6.05592 15.6471 5.79373 16.95 5.79373C18.2529 5.79373 19.5425 6.05592 20.742 6.56469C21.9415 7.07346 23.0264 7.81841 23.9319 8.75517C24.8375 9.69193 25.5454 10.8013 26.0133 12.0174C26.4812 13.2334 26.6996 14.5311 26.6556 15.8333V21.3222C26.7917 23.5955 27.4171 25.8127 28.4889 27.8222C29.256 29.0377 30.1662 30.1568 31.2 31.1555H2.7Z" fill="#03122F"/>
</svg>
