<svg width="20" height="24" viewBox="0 0 20 24" fill="none" xmlns="http://www.w3.org/2000/svg">
<path d="M10.0005 20.2114C7.57651 20.2114 5.61201 21.3249 5.61201 22.5799C5.61201 22.7484 5.64901 23.1689 5.71751 23.1689H7.19801L7.49051 22.4684L7.75251 23.1689H14.265C14.344 23.1689 14.388 22.7299 14.388 22.5474C14.388 21.2929 12.424 20.2114 10.0005 20.2114ZM10.0335 1.66444C11.1982 1.62004 12.3644 1.6394 13.527 1.72244C14.6935 1.80744 15.8565 1.96594 17.0485 2.15894C15.988 1.58194 14.822 1.19994 13.63 0.968443C12.4365 0.728943 11.2135 0.657444 9.99951 0.690444C8.79 0.73907 7.5874 0.897386 6.40651 1.16344C5.22651 1.41594 4.09601 1.79944 2.95201 2.15894C4.16651 2.19644 5.35401 2.01644 6.52701 1.91194C7.70251 1.80194 8.86801 1.69444 10.0335 1.66444ZM10.0275 3.71894C11.4477 3.67445 12.8691 3.69347 14.2875 3.77594C15.7095 3.86094 17.128 4.01844 18.569 4.21394C17.2365 3.62744 15.814 3.24894 14.371 3.01894C12.927 2.78144 11.4595 2.71144 9.99951 2.74444C8.5424 2.79249 7.09097 2.9501 5.65751 3.21594C4.22551 3.46694 2.83401 3.85244 1.43101 4.21344C2.89201 4.25144 4.33051 4.07294 5.75751 3.96744C7.18601 3.85694 8.60651 3.74944 10.0275 3.71894ZM15.7305 11.0659C14.9145 11.0652 14.116 11.3032 13.4335 11.7506C12.751 12.1981 12.2143 12.8353 11.8895 13.5839C10.554 13.5124 9.29801 13.5754 8.15651 13.6989C7.84684 12.9215 7.31097 12.2549 6.61825 11.7854C5.92553 11.3159 5.10785 11.0651 4.27101 11.0654C1.96201 11.0654 0.0880127 12.9324 0.0880127 15.2379C0.0880127 17.5419 1.96201 19.4109 4.27101 19.4109C6.58051 19.4109 8.45501 17.5424 8.45501 15.2379C8.45501 15.1814 8.44801 15.1249 8.44601 15.0679C9.41101 14.9694 10.457 14.9179 11.5605 14.9614C11.553 15.0529 11.5455 15.1439 11.5455 15.2379C11.5455 17.5419 13.4195 19.4109 15.73 19.4109C18.0385 19.4109 19.912 17.5424 19.912 15.2379C19.9125 12.9329 18.039 11.0659 15.7305 11.0659ZM4.27101 18.0194C2.73101 18.0194 1.48251 16.7749 1.48251 15.2379C1.48251 13.7009 2.73101 12.4559 4.27101 12.4559C5.81101 12.4559 7.06001 13.7009 7.06001 15.2379C7.06001 16.7749 5.81101 18.0194 4.27101 18.0194ZM15.7295 18.0194C14.1895 18.0194 12.9405 16.7749 12.9405 15.2379C12.9405 13.7009 14.1895 12.4559 15.7295 12.4559C17.2695 12.4559 18.5185 13.7009 18.5185 15.2379C18.5185 16.7749 17.2695 18.0194 15.7295 18.0194Z" fill="white"/>
</svg>
